<?xml version="1.0" encoding="iso-8859-1"?>
<!-- Uploaded to: SVG Repo, www.svgrepo.com, Generator: SVG Repo Mixer Tools -->
<svg version="1.1" id="Layer_1" xmlns="http://www.w3.org/2000/svg" xmlns:xlink="http://www.w3.org/1999/xlink" 
	 viewBox="0 0 512 512" xml:space="preserve">
<rect x="22.698" y="9.185" style="fill:#3E3B43;" width="255.186" height="415.183"/>
<circle style="fill:#FF3F62;" cx="149.749" cy="173.942" r="65.143"/>
<g>
	<rect x="22.698" y="364.45" style="fill:#1D1D20;" width="255.186" height="59.918"/>
	<rect x="22.698" y="9.185" style="fill:#1D1D20;" width="255.186" height="63.621"/>
</g>
<g>
	<path style="fill:#FFBCAB;" d="M137.84,142.017l40.345,30.962c0.632,0.485,0.632,1.436,0,1.921l-40.345,30.962
		c-0.796,0.612-1.947,0.044-1.947-0.96v-61.924C135.893,141.974,137.044,141.406,137.84,142.017z"/>
	<rect x="78.732" y="288.836" style="fill:#FFBCAB;" width="138.398" height="20.928"/>
</g>
<g>
	<path style="fill:#FF3F62;" d="M78.734,327.533c-4.195,0-7.595-3.4-7.595-7.595V278.66c0-4.194,3.399-7.595,7.595-7.595
		s7.595,3.4,7.595,7.595v41.278C86.329,324.133,82.929,327.533,78.734,327.533z"/>
	<path style="fill:#FF3F62;" d="M217.129,327.533c-4.195,0-7.595-3.4-7.595-7.595V278.66c0-4.194,3.399-7.595,7.595-7.595
		c4.195,0,7.595,3.4,7.595,7.595v41.278C224.724,324.133,221.324,327.533,217.129,327.533z"/>
</g>
<g>
	<path style="fill:#898590;stroke:#77757E;stroke-miterlimit:10;" d="M186.43,47.744h-72.278c-4.195,0-7.595-3.4-7.595-7.595
		s3.399-7.595,7.595-7.595h72.278c4.195,0,7.595,3.4,7.595,7.595S190.626,47.744,186.43,47.744z"/>
	<rect x="229.788" y="424.368" style="fill:#898590;stroke:#77757E;stroke-miterlimit:10;" width="48.09" height="20.855"/>
</g>
<polygon style="opacity:0.17;fill:#FFFFFF;enable-background:new    ;" points="277.884,157.8 22.698,319.823 22.698,244.09 
	277.884,82.068 "/>
<g>
	<path style="fill:#FFF5CC;" d="M368.97,7.595c-6.342,0-11.532,5.189-11.532,11.532v9.917c0-7.797-6.38-14.177-14.177-14.177h-7.424
		c-17.349,0-31.544,14.194-31.544,31.544v12.532c0,17.349,14.194,31.544,31.544,31.544h7.424c7.797,0,14.177-6.38,14.177-14.177
		v64.448c0,6.342,5.19,11.532,11.532,11.532c6.342,0,11.531-5.189,11.531-11.532V19.126C380.502,12.784,375.313,7.595,368.97,7.595z
		"/>
	<path style="fill:#FFF5CC;" d="M457.756,65.498h-7.424c-7.797,0-14.177,6.38-14.177,14.177v-9.917
		c0-6.342-5.189-11.532-11.531-11.532c-6.342,0-11.532,5.189-11.532,11.532v121.631c0,6.342,5.19,11.532,11.532,11.532
		c6.342,0,11.531-5.189,11.531-11.532v-64.45c0,7.797,6.38,14.177,14.177,14.177h7.424c17.349,0,31.544-14.194,31.544-31.544V97.041
		C489.3,79.693,475.105,65.498,457.756,65.498z"/>
</g>
<g>
	<path style="fill:#FFD422;" d="M458.164,65.498h-7.424c-7.797,0-14.177,6.38-14.177,14.177v47.265
		c0,7.797,6.38,14.177,14.177,14.177h7.424V65.498z"/>
	<path style="fill:#FFD422;" d="M335.534,90.484h7.424c7.797,0,14.177-6.38,14.177-14.177V29.042c0-7.797-6.38-14.177-14.177-14.177
		h-7.424V90.484z"/>
</g>
<path d="M132.533,214.169c1.065,0.526,2.215,0.783,3.358,0.783c1.641,0,3.272-0.532,4.625-1.57l43.544-33.417
	c1.873-1.437,2.971-3.664,2.971-6.025c0-2.361-1.098-4.587-2.971-6.025l-43.544-33.417c-2.295-1.76-5.387-2.067-7.984-0.787
	c-2.593,1.279-4.236,3.92-4.236,6.812v66.834C128.298,210.249,129.94,212.89,132.533,214.169z M143.487,155.925l23.474,18.015
	l-23.474,18.015V155.925z"/>
<path d="M457.756,57.903h-7.424c-3.322,0-6.462,0.771-9.283,2.107c-3.338-5.604-9.442-9.378-16.425-9.378
	c-10.547,0-19.127,8.58-19.127,19.126v121.631c0,7.762,4.655,14.444,11.313,17.44v201.568l0.219,36.628
	c0,27.451-22.334,49.785-49.785,49.785h-13.748c14.223-11.933,23.287-29.832,23.287-49.83l-0.219-36.628v-252.05
	c6.777-2.945,11.532-9.697,11.532-17.545V19.126C388.096,8.58,379.517,0,368.97,0c-6.983,0-13.086,3.774-16.425,9.378
	c-2.82-1.337-5.959-2.107-9.283-2.107h-7.424c-21.581,0-39.139,17.557-39.139,39.139v12.531c0,21.581,17.558,39.139,39.139,39.139
	h7.424c2.295,0,4.504-0.362,6.582-1.023v43.701c0,7.848,4.754,14.599,11.531,17.545v252.095l0.219,36.628
	c0,27.451-22.334,49.785-49.785,49.785c-25.491,0-46.557-19.262-49.437-43.993h15.513c4.195,0,7.595-3.4,7.595-7.595v-20.855V9.184
	c0-4.194-3.399-7.595-7.595-7.595H22.699c-4.195,0-7.595,3.4-7.595,7.595v415.183c0,4.194,3.399,7.595,7.595,7.595h199.499v13.261
	c0,4.194,3.399,7.595,7.595,7.595h17.315C250.049,485.94,277.936,512,311.811,512h55.435c35.827,0,64.974-29.147,64.974-65.02
	l-0.219-36.628V209.033c6.894-2.893,11.751-9.71,11.751-17.643v-43.701c2.078,0.661,4.288,1.023,6.582,1.023h7.424
	c21.581,0,39.138-17.557,39.138-39.139V97.041C496.894,75.461,479.337,57.903,457.756,57.903z M365.034,19.126
	c0-2.134,1.802-3.936,3.936-3.936s3.937,1.803,3.937,3.936v121.631c0,2.134-1.803,3.936-3.937,3.936
	c-2.133,0-3.936-1.803-3.936-3.936v-64.45V29.043V19.126z M343.262,82.89h-7.424c-13.206,0-23.949-10.743-23.949-23.949V46.409
	c0-13.206,10.743-23.949,23.949-23.949h7.424c3.629,0,6.582,2.953,6.582,6.582v47.265C349.845,79.937,346.892,82.89,343.262,82.89z
	 M30.294,80.4H270.29v276.451H30.294C30.294,356.851,30.294,80.4,30.294,80.4z M270.29,16.778V65.21H30.294V16.778H270.29z
	 M30.294,372.041H270.29v44.731h-40.498H30.294V372.041z M237.387,431.962h32.903v5.666h-32.903L237.387,431.962L237.387,431.962z
	 M420.687,69.758c0-2.134,1.802-3.936,3.937-3.936c2.135,0,3.937,1.803,3.937,3.936v9.917v47.265v64.45
	c0,1.003-0.408,1.924-1.052,2.628c-0.949-0.425-1.997-0.667-3.104-0.667c-0.982,0-1.918,0.192-2.78,0.532
	c-0.575-0.686-0.939-1.551-0.939-2.492V69.758z M481.705,109.574c0,13.206-10.743,23.949-23.948,23.949h-7.424
	c-3.629,0-6.582-2.953-6.582-6.582V79.675c0-3.629,2.953-6.582,6.582-6.582h7.424c13.205,0,23.948,10.743,23.948,23.949V109.574z"/>
<path d="M217.129,271.065c-4.195,0-7.595,3.4-7.595,7.595v2.58H86.329v-2.58c0-4.194-3.399-7.595-7.595-7.595
	s-7.595,3.4-7.595,7.595v10.175v20.928v10.175c0,4.194,3.399,7.595,7.595,7.595s7.595-3.4,7.595-7.595v-2.58h123.205v2.58
	c0,4.194,3.399,7.595,7.595,7.595c4.195,0,7.595-3.4,7.595-7.595v-10.175v-20.928V278.66
	C224.724,274.466,221.324,271.065,217.129,271.065z M86.329,302.168v-5.739h123.205v5.739H86.329z"/>
<path d="M149.747,246.682c40.109,0,72.741-32.632,72.741-72.741s-32.632-72.741-72.741-72.741c-40.11,0-72.742,32.631-72.742,72.741
	S109.638,246.682,149.747,246.682z M149.747,116.388c31.734,0,57.551,25.817,57.551,57.551s-25.817,57.552-57.551,57.552
	s-57.552-25.818-57.552-57.552S118.014,116.388,149.747,116.388z"/>
<path d="M114.152,47.744h72.278c4.195,0,7.595-3.4,7.595-7.595s-3.399-7.595-7.595-7.595h-72.278c-4.195,0-7.595,3.4-7.595,7.595
	S109.957,47.744,114.152,47.744z"/>
</svg>